# xmcd CD database file
#
# Track frame offsets:
#	150
#	18555
#	35105
#	50240
#	64842
#	78240
#	98015
#	114572
#	131805
#	152790
#	174970
#	199105
#	219632
#
# Disc length: 3140 seconds
#
# Revision: 2
# Processed by: cddbd v1.5.2PL0 Copyright (c) Steve Scherf et al.
# Submitted via: CDex 1.70beta2
#
DISCID=b90c420d
DTITLE=G. Love and Special Sauce - Coast to Coast Motel (ESCA_6288)
DYEAR=1995
DGENRE=Rock
TTITLE0=Sweet Sugar Mama
TTITLE1=Leaving The  City
TTITLE2=Nancy
TTITLE3=Kiss And Tell
TTITLE4=Chains #3
TTITLE5=Sometimes
TTITLE6=Everybody
TTITLE7=Soda Pop
TTITLE8=Bye Bye Baby
TTITLE9=Tomorrow Night
TTITLE10=Small Fish
TTITLE11=Coming Home
TTITLE12=Lila
EXTD=YEAR: 1995
EXTT0=
EXTT1=
EXTT2=
EXTT3=
EXTT4=
EXTT5=
EXTT6=
EXTT7=
EXTT8=
EXTT9=
EXTT10=
EXTT11=
EXTT12=
PLAYORDER=
